<svg xmlns="http://www.w3.org/2000/svg" version="1.1" xmlns:xlink="http://www.w3.org/1999/xlink" xmlns:svgjs="http://svgjs.com/svgjs" width="1440" height="560" preserveAspectRatio="none" viewBox="0 0 1440 560"><g mask="url(&quot;#SvgjsMask1002&quot;)" fill="none"><path d="M16.8 0C79.25 28.62 88.17 64.17 140 64.17C167.27 64.17 146.27 13.17 175 0C216.27 -18.92 227.5 0 280 0C350 0 350 0 420 0C482.63 0 525.22 -32.41 545.26 0C568.5 37.59 501.51 78.2 506.55 140C508.88 168.62 535.24 180.83 560 180.83C580.11 180.83 594.07 165.19 596.3 140C602.07 74.77 548.37 37.3 576 0C600.22 -32.7 638 0 700 0C770 0 770 0 840 0C910 0 910 0 980 0C1034.31 0 1037.49 -9.11 1088.62 0C1107.49 3.36 1101.67 24.93 1120 24.93C1165.26 24.93 1167.4 8.62 1215.79 0C1237.4 -3.85 1237.89 0 1260 0C1330 0 1330 0 1400 0C1470 0 1505 -35 1540 0C1575 35 1540 70 1540 140C1540 210 1540 210 1540 280C1540 350 1540 350 1540 420C1540 490 1575 525 1540 560C1505 595 1470 560 1400 560C1334.2 560 1298.73 593.9 1268.4 560C1236.1 523.9 1272.07 490.02 1274.74 420C1277.41 350.02 1269.93 349.08 1279.09 280C1288.49 209.08 1317.06 207.63 1311.85 140C1307.52 83.78 1282.3 32.31 1260 32.31C1238.87 32.31 1228.01 84.98 1225 140C1221.24 208.82 1244.36 209.75 1246.45 280C1248.52 349.75 1247.15 351.45 1233.33 420C1218.93 491.45 1228.35 512.63 1190 560C1171.68 582.63 1155 560 1120 560C1050 560 1050 560 980 560C910 560 910 560 840 560C770 560 770 560 700 560C635.84 560 625.06 574.56 571.67 560C555.06 555.47 564.41 521.82 560 521.82C555.74 521.82 569.95 555.74 554.32 560C499.95 574.83 487.16 560 420 560C350 560 350 560 280 560C210 560 210 560 140 560C70 560 35 595 0 560C-35 525 0 490 0 420C0 350 0 350 0 280C0 210 0 210 0 140C0 70 -7.5 62.5 0 0C0.9 -7.5 9.25 -3.46 16.8 0" stroke="rgba(217, 109, 31, 1)" stroke-width="2"></path><path d="M280 133.91C272.9 133.91 265.52 135.54 265.52 140C265.52 145.82 273.2 154.48 280 154.48C286.11 154.48 291.35 146.05 291.35 140C291.35 135.76 285.82 133.91 280 133.91" stroke="rgba(217, 109, 31, 1)" stroke-width="2"></path><path d="M840 132.88C835.41 134.4 833.33 135.71 833.33 140C833.33 149.27 832.34 152.98 840 160C905.68 220.18 929.31 280.03 980 274.4C1019.31 270.03 1020 203.16 1020 140C1020 111.61 1007.13 92.37 980 91.3C917.13 88.81 908.74 110.05 840 132.88" stroke="rgba(217, 109, 31, 1)" stroke-width="2"></path><path d="M140 231C118.76 231 113.26 251.73 100 280C68.93 346.23 39.16 366.75 51.33 420C59.16 454.25 97.79 455 140 455C166.76 455 181.87 446.38 189.26 420C206.37 358.88 205.48 343.21 189 280C180.85 248.71 163.26 231 140 231" stroke="rgba(217, 109, 31, 1)" stroke-width="2"></path><path d="M840 364C795.5 364 746.67 382.42 746.67 420C746.67 475.04 798.06 549.23 840 549.23C878.32 549.23 907.2 477.86 907.2 420C907.2 385.25 875.76 364 840 364" stroke="rgba(217, 109, 31, 1)" stroke-width="2"></path><path d="M0 114.07C59.18 112.84 70.36 124.61 140 137.08C142.77 137.58 144.83 138.44 144.83 140C144.83 141.65 141.9 141.21 140 143.5C83.77 211.21 79.72 208.82 28.57 280C9.72 306.24 7.53 338.33 0 338.33C-6.76 338.33 0 309.16 0 280C0 210 0 210 0 140C0 127.03 -10.82 114.3 0 114.07" stroke="rgba(217, 109, 31, 1)" stroke-width="2"></path><path d="M280 83.19C239.95 50.44 214.77 25.72 214.77 0C214.77 -15.87 247.38 0 280 0C350 0 350 0 420 0C436.58 0 450.97 -13.38 453.16 0C462.43 56.62 453.59 71.05 442.91 140C437.01 178.11 433.88 214.12 420 214.12C405.4 214.12 414.25 166.46 385.95 140C344.25 101 325.54 120.44 280 83.19" stroke="rgba(217, 109, 31, 1)" stroke-width="2"></path><path d="M639.51 140C671.25 77.21 650.06 60.04 676 0C680.3 -9.96 688 0 700 0C770 0 770 0 840 0C910 0 910 0 980 0C1004.14 0 1028.28 -8.8 1028.28 0C1028.28 11.49 1008.7 29.37 980 40.58C914.56 66.15 901.92 43.12 840 73.56C800.81 92.83 781.97 100.31 777.78 140C771.08 203.53 837.34 222.63 818.22 280C798.45 339.3 766.85 351.41 700 373.33C637.74 393.74 625.88 351.58 560 364.65C508.28 374.91 476.18 378.04 464.8 420C449.69 475.72 521.07 516.12 507.03 560C498.67 586.12 463.51 560 420 560C350 560 350 560 280 560C210 560 210 560 140 560C70 560 55.42 574.58 0 560C-14.58 556.16 -14.44 529.24 0 523.16C55.56 499.77 76.08 527.01 140 501.05C203.11 475.43 220.17 474.9 254.07 420C288.42 364.37 264.06 349.49 276.5 280C277.02 277.08 277.45 275.17 280 275.17C286.98 275.17 288.39 276.17 295.56 280C358.39 313.58 368.96 350 420 350C447.65 350 425.28 303.82 452.94 280C495.28 243.54 513.61 264.25 560 229.44C606.89 194.25 613.25 191.93 639.51 140" stroke="rgba(217, 109, 31, 1)" stroke-width="2"></path><path d="M1061.67 140C1064.61 100.86 1090.43 72.88 1120 72.88C1150.22 72.88 1178.67 100.59 1181.25 140C1185.45 204.15 1157.59 210.07 1133.55 280C1126.97 299.16 1127.21 318.18 1120 318.18C1112.66 318.18 1110.85 299.58 1104.44 280C1081.68 210.49 1056.83 204.42 1061.67 140" stroke="rgba(217, 109, 31, 1)" stroke-width="2"></path><path d="M1376.67 140C1376.67 108.01 1385.11 77 1400 77C1416.47 77 1411.65 117.23 1439.38 140C1481.65 174.7 1511.7 152.56 1540 191.94C1562.01 222.56 1540 235.97 1540 280C1540 350 1540 350 1540 420C1540 490 1575 525 1540 560C1505 595 1470 560 1400 560C1369.2 560 1343.4 581.09 1338.4 560C1326.82 511.09 1347.97 488.62 1366.84 420C1378.77 376.62 1384.33 378.33 1400 336C1410.24 308.33 1418.67 308 1418.67 280C1418.67 252 1408.48 252.26 1400 224C1387.48 182.26 1376.67 181.51 1376.67 140" stroke="rgba(217, 109, 31, 1)" stroke-width="2"></path><path d="M668.89 560C668.89 547.04 683.85 518.52 700 518.52C716.9 518.52 735 547.39 735 560C735 568.13 717.5 560 700 560C684.44 560 668.89 567.78 668.89 560" stroke="rgba(217, 109, 31, 1)" stroke-width="2"></path><path d="M887.32 560C887.32 525.98 933.27 448.47 980 448.47C1027.29 448.47 1075.36 526.2 1075.36 560C1075.36 581.97 1027.68 560 980 560C933.66 560 887.32 581.74 887.32 560" stroke="rgba(217, 109, 31, 1)" stroke-width="2"></path><path d="M280 32.46C263.37 32.46 254.55 10.04 254.55 0C254.55 -6.19 267.27 0 280 0C315 0 350 -7.72 350 0C350 8.51 311.1 32.46 280 32.46" stroke="rgba(217, 109, 31, 1)" stroke-width="2"></path><path d="M682.72 140C697.93 119.76 690.3 91.72 700 91.72C710.05 91.72 716.69 114.25 722.22 140C736.91 208.39 748.58 217.02 740.44 280C737.47 302.99 723.91 311.5 700 311.93C633.69 313.13 629.5 298.66 560 283.26C557.44 282.69 555.88 281.39 555.88 280C555.88 278.79 558.47 279.74 560 278.06C621.89 209.74 627.93 212.93 682.72 140" stroke="rgba(217, 109, 31, 1)" stroke-width="2"></path><path d="M840 14.24C822.43 14.24 806.4 3.71 806.4 0C806.4 -3.41 823.2 0 840 0C878.18 0 916.36 -3.53 916.36 0C916.36 3.59 877.41 14.24 840 14.24" stroke="rgba(217, 109, 31, 1)" stroke-width="2"></path><path d="M1103.33 140C1103.33 128.93 1111.55 120.82 1120 120.82C1128.63 120.82 1137.5 128.82 1137.5 140C1137.5 160.29 1128.57 183.75 1120 183.75C1111.48 183.75 1103.33 160.4 1103.33 140" stroke="rgba(217, 109, 31, 1)" stroke-width="2"></path><path d="M1496.44 280C1496.44 257.9 1526.28 248.39 1540 248.39C1548.06 248.39 1540 264.19 1540 280C1540 334.44 1550.49 388.89 1540 388.89C1528.71 388.89 1496.44 328.15 1496.44 280" stroke="rgba(217, 109, 31, 1)" stroke-width="2"></path><path d="M103.7 560C103.7 556.68 122.54 555.2 140 547.11C210.69 514.36 206.24 495.32 280 478.33C346.24 463.08 364.56 457.44 420 482.63C454.43 498.27 459.73 533.45 459.73 560C459.73 572.13 439.87 560 420 560C350 560 350 560 280 560C210 560 210 560 140 560C121.85 560 103.7 563.13 103.7 560" stroke="rgba(217, 109, 31, 1)" stroke-width="2"></path><path d="M936.62 560C936.62 544.08 958.13 507.8 980 507.8C1002.14 507.8 1024.64 544.18 1024.64 560C1024.64 570.28 1002.32 560 980 560C958.31 560 936.62 570.18 936.62 560" stroke="rgba(217, 109, 31, 1)" stroke-width="2"></path></g><defs><mask id="SvgjsMask1002"><rect width="1440" height="560" fill="#ffffff"></rect></mask></defs></svg>