<svg xmlns="http://www.w3.org/2000/svg" version="1.1" xmlns:xlink="http://www.w3.org/1999/xlink" xmlns:svgjs="http://svgjs.com/svgjs" width="1440" height="560" preserveAspectRatio="none" viewBox="0 0 1440 560"><g mask="url(&quot;#SvgjsMask1006&quot;)" fill="none"><path d="M-64.61 501.29L-64.61 501.29" stroke="rgba(217, 109, 31, 1)" stroke-width="1.5"></path><path d="M-64.61 501.29L-74.35 648.84" stroke="rgba(217, 109, 31, 1)" stroke-width="1.5"></path><path d="M-64.61 501.29L100.58 490.23" stroke="rgba(217, 109, 31, 1)" stroke-width="1.5"></path><path d="M-64.61 501.29L76.87 394.21" stroke="rgba(217, 109, 31, 1)" stroke-width="1.5"></path><path d="M-74.35 648.84L-74.35 648.84" stroke="rgba(217, 109, 31, 1)" stroke-width="1.5"></path><path d="M-74.35 648.84L85.39 691.98" stroke="rgba(217, 109, 31, 1)" stroke-width="1.5"></path><path d="M76.87 394.21L76.87 394.21" stroke="rgba(217, 109, 31, 1)" stroke-width="1.5"></path><path d="M76.87 394.21L100.58 490.23" stroke="rgba(217, 109, 31, 1)" stroke-width="1.5"></path><path d="M76.87 394.21L217.82 410.69" stroke="rgba(217, 109, 31, 1)" stroke-width="1.5"></path><path d="M76.87 394.21L202.22 513.74" stroke="rgba(217, 109, 31, 1)" stroke-width="1.5"></path><path d="M76.87 394.21L358.86 389.29" stroke="rgba(217, 109, 31, 1)" stroke-width="1.5"></path><path d="M76.87 394.21L-74.35 648.84" stroke="rgba(217, 109, 31, 1)" stroke-width="1.5"></path><path d="M100.58 490.23L100.58 490.23" stroke="rgba(217, 109, 31, 1)" stroke-width="1.5"></path><path d="M100.58 490.23L202.22 513.74" stroke="rgba(217, 109, 31, 1)" stroke-width="1.5"></path><path d="M100.58 490.23L217.82 410.69" stroke="rgba(217, 109, 31, 1)" stroke-width="1.5"></path><path d="M100.58 490.23L85.39 691.98" stroke="rgba(217, 109, 31, 1)" stroke-width="1.5"></path><path d="M85.39 691.98L85.39 691.98" stroke="rgba(217, 109, 31, 1)" stroke-width="1.5"></path><path d="M85.39 691.98L259.62 685.26" stroke="rgba(217, 109, 31, 1)" stroke-width="1.5"></path><path d="M217.82 410.69L217.82 410.69" stroke="rgba(217, 109, 31, 1)" stroke-width="1.5"></path><path d="M217.82 410.69L202.22 513.74" stroke="rgba(217, 109, 31, 1)" stroke-width="1.5"></path><path d="M202.22 513.74L202.22 513.74" stroke="rgba(217, 109, 31, 1)" stroke-width="1.5"></path><path d="M259.62 685.26L259.62 685.26" stroke="rgba(217, 109, 31, 1)" stroke-width="1.5"></path><path d="M259.62 685.26L407.8 705.42" stroke="rgba(217, 109, 31, 1)" stroke-width="1.5"></path><path d="M259.62 685.26L202.22 513.74" stroke="rgba(217, 109, 31, 1)" stroke-width="1.5"></path><path d="M358.86 389.29L358.86 389.29" stroke="rgba(217, 109, 31, 1)" stroke-width="1.5"></path><path d="M358.86 389.29L381.94 506.19" stroke="rgba(217, 109, 31, 1)" stroke-width="1.5"></path><path d="M358.86 389.29L217.82 410.69" stroke="rgba(217, 109, 31, 1)" stroke-width="1.5"></path><path d="M358.86 389.29L556.13 412.44" stroke="rgba(217, 109, 31, 1)" stroke-width="1.5"></path><path d="M358.86 389.29L202.22 513.74" stroke="rgba(217, 109, 31, 1)" stroke-width="1.5"></path><path d="M381.94 506.19L381.94 506.19" stroke="rgba(217, 109, 31, 1)" stroke-width="1.5"></path><path d="M381.94 506.19L538.9 512.41" stroke="rgba(217, 109, 31, 1)" stroke-width="1.5"></path><path d="M381.94 506.19L202.22 513.74" stroke="rgba(217, 109, 31, 1)" stroke-width="1.5"></path><path d="M381.94 506.19L217.82 410.69" stroke="rgba(217, 109, 31, 1)" stroke-width="1.5"></path><path d="M381.94 506.19L556.13 412.44" stroke="rgba(217, 109, 31, 1)" stroke-width="1.5"></path><path d="M407.8 705.42L407.8 705.42" stroke="rgba(217, 109, 31, 1)" stroke-width="1.5"></path><path d="M407.8 705.42L534.72 659.99" stroke="rgba(217, 109, 31, 1)" stroke-width="1.5"></path><path d="M407.8 705.42L381.94 506.19" stroke="rgba(217, 109, 31, 1)" stroke-width="1.5"></path><path d="M407.8 705.42L538.9 512.41" stroke="rgba(217, 109, 31, 1)" stroke-width="1.5"></path><path d="M407.8 705.42L668.55 666.5" stroke="rgba(217, 109, 31, 1)" stroke-width="1.5"></path><path d="M407.8 705.42L202.22 513.74" stroke="rgba(217, 109, 31, 1)" stroke-width="1.5"></path><path d="M556.13 412.44L556.13 412.44" stroke="rgba(217, 109, 31, 1)" stroke-width="1.5"></path><path d="M556.13 412.44L538.9 512.41" stroke="rgba(217, 109, 31, 1)" stroke-width="1.5"></path><path d="M556.13 412.44L658.87 398.23" stroke="rgba(217, 109, 31, 1)" stroke-width="1.5"></path><path d="M538.9 512.41L538.9 512.41" stroke="rgba(217, 109, 31, 1)" stroke-width="1.5"></path><path d="M538.9 512.41L665.58 522.35" stroke="rgba(217, 109, 31, 1)" stroke-width="1.5"></path><path d="M538.9 512.41L534.72 659.99" stroke="rgba(217, 109, 31, 1)" stroke-width="1.5"></path><path d="M534.72 659.99L534.72 659.99" stroke="rgba(217, 109, 31, 1)" stroke-width="1.5"></path><path d="M534.72 659.99L668.55 666.5" stroke="rgba(217, 109, 31, 1)" stroke-width="1.5"></path><path d="M534.72 659.99L665.58 522.35" stroke="rgba(217, 109, 31, 1)" stroke-width="1.5"></path><path d="M704.83 213.22L704.83 213.22" stroke="rgba(217, 109, 31, 1)" stroke-width="1.5"></path><path d="M704.83 213.22L806.5 210.53" stroke="rgba(217, 109, 31, 1)" stroke-width="1.5"></path><path d="M704.83 213.22L658.87 398.23" stroke="rgba(217, 109, 31, 1)" stroke-width="1.5"></path><path d="M704.83 213.22L827.9 367.01" stroke="rgba(217, 109, 31, 1)" stroke-width="1.5"></path><path d="M704.83 213.22L556.13 412.44" stroke="rgba(217, 109, 31, 1)" stroke-width="1.5"></path><path d="M658.87 398.23L658.87 398.23" stroke="rgba(217, 109, 31, 1)" stroke-width="1.5"></path><path d="M658.87 398.23L665.58 522.35" stroke="rgba(217, 109, 31, 1)" stroke-width="1.5"></path><path d="M658.87 398.23L538.9 512.41" stroke="rgba(217, 109, 31, 1)" stroke-width="1.5"></path><path d="M658.87 398.23L827.9 367.01" stroke="rgba(217, 109, 31, 1)" stroke-width="1.5"></path><path d="M665.58 522.35L665.58 522.35" stroke="rgba(217, 109, 31, 1)" stroke-width="1.5"></path><path d="M665.58 522.35L668.55 666.5" stroke="rgba(217, 109, 31, 1)" stroke-width="1.5"></path><path d="M665.58 522.35L556.13 412.44" stroke="rgba(217, 109, 31, 1)" stroke-width="1.5"></path><path d="M668.55 666.5L668.55 666.5" stroke="rgba(217, 109, 31, 1)" stroke-width="1.5"></path><path d="M668.55 666.5L538.9 512.41" stroke="rgba(217, 109, 31, 1)" stroke-width="1.5"></path><path d="M806.5 210.53L806.5 210.53" stroke="rgba(217, 109, 31, 1)" stroke-width="1.5"></path><path d="M806.5 210.53L956.43 207.97" stroke="rgba(217, 109, 31, 1)" stroke-width="1.5"></path><path d="M806.5 210.53L827.9 367.01" stroke="rgba(217, 109, 31, 1)" stroke-width="1.5"></path><path d="M806.5 210.53L941 341.79" stroke="rgba(217, 109, 31, 1)" stroke-width="1.5"></path><path d="M827.9 367.01L827.9 367.01" stroke="rgba(217, 109, 31, 1)" stroke-width="1.5"></path><path d="M827.9 367.01L941 341.79" stroke="rgba(217, 109, 31, 1)" stroke-width="1.5"></path><path d="M827.9 367.01L830.27 489.78" stroke="rgba(217, 109, 31, 1)" stroke-width="1.5"></path><path d="M830.27 489.78L830.27 489.78" stroke="rgba(217, 109, 31, 1)" stroke-width="1.5"></path><path d="M830.27 489.78L665.58 522.35" stroke="rgba(217, 109, 31, 1)" stroke-width="1.5"></path><path d="M830.27 489.78L1003.81 534.71" stroke="rgba(217, 109, 31, 1)" stroke-width="1.5"></path><path d="M947.47 -102.18L947.47 -102.18" stroke="rgba(217, 109, 31, 1)" stroke-width="1.5"></path><path d="M947.47 -102.18L1094.07 -68.26" stroke="rgba(217, 109, 31, 1)" stroke-width="1.5"></path><path d="M947.47 -102.18L997.95 105.45" stroke="rgba(217, 109, 31, 1)" stroke-width="1.5"></path><path d="M947.47 -102.18L956.43 207.97" stroke="rgba(217, 109, 31, 1)" stroke-width="1.5"></path><path d="M947.47 -102.18L806.5 210.53" stroke="rgba(217, 109, 31, 1)" stroke-width="1.5"></path><path d="M947.47 -102.18L1096.46 215.12" stroke="rgba(217, 109, 31, 1)" stroke-width="1.5"></path><path d="M997.95 105.45L997.95 105.45" stroke="rgba(217, 109, 31, 1)" stroke-width="1.5"></path><path d="M997.95 105.45L956.43 207.97" stroke="rgba(217, 109, 31, 1)" stroke-width="1.5"></path><path d="M997.95 105.45L1096.46 215.12" stroke="rgba(217, 109, 31, 1)" stroke-width="1.5"></path><path d="M997.95 105.45L1094.07 -68.26" stroke="rgba(217, 109, 31, 1)" stroke-width="1.5"></path><path d="M997.95 105.45L806.5 210.53" stroke="rgba(217, 109, 31, 1)" stroke-width="1.5"></path><path d="M956.43 207.97L956.43 207.97" stroke="rgba(217, 109, 31, 1)" stroke-width="1.5"></path><path d="M956.43 207.97L941 341.79" stroke="rgba(217, 109, 31, 1)" stroke-width="1.5"></path><path d="M941 341.79L941 341.79" stroke="rgba(217, 109, 31, 1)" stroke-width="1.5"></path><path d="M941 341.79L1117.99 344.03" stroke="rgba(217, 109, 31, 1)" stroke-width="1.5"></path><path d="M941 341.79L830.27 489.78" stroke="rgba(217, 109, 31, 1)" stroke-width="1.5"></path><path d="M941 341.79L1096.46 215.12" stroke="rgba(217, 109, 31, 1)" stroke-width="1.5"></path><path d="M1003.81 534.71L1003.81 534.71" stroke="rgba(217, 109, 31, 1)" stroke-width="1.5"></path><path d="M1003.81 534.71L1103.82 513.32" stroke="rgba(217, 109, 31, 1)" stroke-width="1.5"></path><path d="M1003.81 534.71L974.44 666.16" stroke="rgba(217, 109, 31, 1)" stroke-width="1.5"></path><path d="M974.44 666.16L974.44 666.16" stroke="rgba(217, 109, 31, 1)" stroke-width="1.5"></path><path d="M974.44 666.16L1092.26 647.88" stroke="rgba(217, 109, 31, 1)" stroke-width="1.5"></path><path d="M974.44 666.16L1103.82 513.32" stroke="rgba(217, 109, 31, 1)" stroke-width="1.5"></path><path d="M974.44 666.16L830.27 489.78" stroke="rgba(217, 109, 31, 1)" stroke-width="1.5"></path><path d="M974.44 666.16L668.55 666.5" stroke="rgba(217, 109, 31, 1)" stroke-width="1.5"></path><path d="M1094.07 -68.26L1094.07 -68.26" stroke="rgba(217, 109, 31, 1)" stroke-width="1.5"></path><path d="M1094.07 -68.26L1304.84 -46.56" stroke="rgba(217, 109, 31, 1)" stroke-width="1.5"></path><path d="M1094.07 -68.26L1305.63 74.58" stroke="rgba(217, 109, 31, 1)" stroke-width="1.5"></path><path d="M1094.07 -68.26L1096.46 215.12" stroke="rgba(217, 109, 31, 1)" stroke-width="1.5"></path><path d="M1094.07 -68.26L956.43 207.97" stroke="rgba(217, 109, 31, 1)" stroke-width="1.5"></path><path d="M1096.46 215.12L1096.46 215.12" stroke="rgba(217, 109, 31, 1)" stroke-width="1.5"></path><path d="M1096.46 215.12L1117.99 344.03" stroke="rgba(217, 109, 31, 1)" stroke-width="1.5"></path><path d="M1096.46 215.12L956.43 207.97" stroke="rgba(217, 109, 31, 1)" stroke-width="1.5"></path><path d="M1096.46 215.12L1311.54 201.2" stroke="rgba(217, 109, 31, 1)" stroke-width="1.5"></path><path d="M1096.46 215.12L1271.56 354.56" stroke="rgba(217, 109, 31, 1)" stroke-width="1.5"></path><path d="M1117.99 344.03L1117.99 344.03" stroke="rgba(217, 109, 31, 1)" stroke-width="1.5"></path><path d="M1117.99 344.03L1271.56 354.56" stroke="rgba(217, 109, 31, 1)" stroke-width="1.5"></path><path d="M1117.99 344.03L1103.82 513.32" stroke="rgba(217, 109, 31, 1)" stroke-width="1.5"></path><path d="M1103.82 513.32L1103.82 513.32" stroke="rgba(217, 109, 31, 1)" stroke-width="1.5"></path><path d="M1103.82 513.32L1092.26 647.88" stroke="rgba(217, 109, 31, 1)" stroke-width="1.5"></path><path d="M1103.82 513.32L1271.56 354.56" stroke="rgba(217, 109, 31, 1)" stroke-width="1.5"></path><path d="M1092.26 647.88L1092.26 647.88" stroke="rgba(217, 109, 31, 1)" stroke-width="1.5"></path><path d="M1092.26 647.88L1003.81 534.71" stroke="rgba(217, 109, 31, 1)" stroke-width="1.5"></path><path d="M1092.26 647.88L1287.94 695.78" stroke="rgba(217, 109, 31, 1)" stroke-width="1.5"></path><path d="M1304.84 -46.56L1304.84 -46.56" stroke="rgba(217, 109, 31, 1)" stroke-width="1.5"></path><path d="M1304.84 -46.56L1305.63 74.58" stroke="rgba(217, 109, 31, 1)" stroke-width="1.5"></path><path d="M1304.84 -46.56L1422.73 -82.01" stroke="rgba(217, 109, 31, 1)" stroke-width="1.5"></path><path d="M1304.84 -46.56L1389.17 86.56" stroke="rgba(217, 109, 31, 1)" stroke-width="1.5"></path><path d="M1304.84 -46.56L1311.54 201.2" stroke="rgba(217, 109, 31, 1)" stroke-width="1.5"></path><path d="M1304.84 -46.56L1562.2 -112" stroke="rgba(217, 109, 31, 1)" stroke-width="1.5"></path><path d="M1305.63 74.58L1305.63 74.58" stroke="rgba(217, 109, 31, 1)" stroke-width="1.5"></path><path d="M1305.63 74.58L1389.17 86.56" stroke="rgba(217, 109, 31, 1)" stroke-width="1.5"></path><path d="M1305.63 74.58L1311.54 201.2" stroke="rgba(217, 109, 31, 1)" stroke-width="1.5"></path><path d="M1311.54 201.2L1311.54 201.2" stroke="rgba(217, 109, 31, 1)" stroke-width="1.5"></path><path d="M1311.54 201.2L1447.31 201.96" stroke="rgba(217, 109, 31, 1)" stroke-width="1.5"></path><path d="M1311.54 201.2L1389.17 86.56" stroke="rgba(217, 109, 31, 1)" stroke-width="1.5"></path><path d="M1311.54 201.2L1271.56 354.56" stroke="rgba(217, 109, 31, 1)" stroke-width="1.5"></path><path d="M1311.54 201.2L1542.33 230.76" stroke="rgba(217, 109, 31, 1)" stroke-width="1.5"></path><path d="M1271.56 354.56L1271.56 354.56" stroke="rgba(217, 109, 31, 1)" stroke-width="1.5"></path><path d="M1287.94 695.78L1287.94 695.78" stroke="rgba(217, 109, 31, 1)" stroke-width="1.5"></path><path d="M1287.94 695.78L1449.25 679.29" stroke="rgba(217, 109, 31, 1)" stroke-width="1.5"></path><path d="M1287.94 695.78L1460.51 551.44" stroke="rgba(217, 109, 31, 1)" stroke-width="1.5"></path><path d="M1287.94 695.78L1103.82 513.32" stroke="rgba(217, 109, 31, 1)" stroke-width="1.5"></path><path d="M1422.73 -82.01L1422.73 -82.01" stroke="rgba(217, 109, 31, 1)" stroke-width="1.5"></path><path d="M1422.73 -82.01L1562.2 -112" stroke="rgba(217, 109, 31, 1)" stroke-width="1.5"></path><path d="M1422.73 -82.01L1389.17 86.56" stroke="rgba(217, 109, 31, 1)" stroke-width="1.5"></path><path d="M1422.73 -82.01L1305.63 74.58" stroke="rgba(217, 109, 31, 1)" stroke-width="1.5"></path><path d="M1422.73 -82.01L1603.87 95.77" stroke="rgba(217, 109, 31, 1)" stroke-width="1.5"></path><path d="M1389.17 86.56L1389.17 86.56" stroke="rgba(217, 109, 31, 1)" stroke-width="1.5"></path><path d="M1389.17 86.56L1447.31 201.96" stroke="rgba(217, 109, 31, 1)" stroke-width="1.5"></path><path d="M1447.31 201.96L1447.31 201.96" stroke="rgba(217, 109, 31, 1)" stroke-width="1.5"></path><path d="M1447.31 201.96L1542.33 230.76" stroke="rgba(217, 109, 31, 1)" stroke-width="1.5"></path><path d="M1460.51 551.44L1460.51 551.44" stroke="rgba(217, 109, 31, 1)" stroke-width="1.5"></path><path d="M1460.51 551.44L1449.25 679.29" stroke="rgba(217, 109, 31, 1)" stroke-width="1.5"></path><path d="M1460.51 551.44L1568.7 678.06" stroke="rgba(217, 109, 31, 1)" stroke-width="1.5"></path><path d="M1460.51 551.44L1593.21 340.68" stroke="rgba(217, 109, 31, 1)" stroke-width="1.5"></path><path d="M1460.51 551.44L1271.56 354.56" stroke="rgba(217, 109, 31, 1)" stroke-width="1.5"></path><path d="M1460.51 551.44L1542.33 230.76" stroke="rgba(217, 109, 31, 1)" stroke-width="1.5"></path><path d="M1449.25 679.29L1449.25 679.29" stroke="rgba(217, 109, 31, 1)" stroke-width="1.5"></path><path d="M1449.25 679.29L1568.7 678.06" stroke="rgba(217, 109, 31, 1)" stroke-width="1.5"></path><path d="M1449.25 679.29L1092.26 647.88" stroke="rgba(217, 109, 31, 1)" stroke-width="1.5"></path><path d="M1562.2 -112L1562.2 -112" stroke="rgba(217, 109, 31, 1)" stroke-width="1.5"></path><path d="M1562.2 -112L1603.87 95.77" stroke="rgba(217, 109, 31, 1)" stroke-width="1.5"></path><path d="M1562.2 -112L1389.17 86.56" stroke="rgba(217, 109, 31, 1)" stroke-width="1.5"></path><path d="M1603.87 95.77L1603.87 95.77" stroke="rgba(217, 109, 31, 1)" stroke-width="1.5"></path><path d="M1603.87 95.77L1542.33 230.76" stroke="rgba(217, 109, 31, 1)" stroke-width="1.5"></path><path d="M1603.87 95.77L1447.31 201.96" stroke="rgba(217, 109, 31, 1)" stroke-width="1.5"></path><path d="M1603.87 95.77L1389.17 86.56" stroke="rgba(217, 109, 31, 1)" stroke-width="1.5"></path><path d="M1542.33 230.76L1542.33 230.76" stroke="rgba(217, 109, 31, 1)" stroke-width="1.5"></path><path d="M1593.21 340.68L1593.21 340.68" stroke="rgba(217, 109, 31, 1)" stroke-width="1.5"></path><path d="M1593.21 340.68L1542.33 230.76" stroke="rgba(217, 109, 31, 1)" stroke-width="1.5"></path><path d="M1593.21 340.68L1447.31 201.96" stroke="rgba(217, 109, 31, 1)" stroke-width="1.5"></path><path d="M1593.21 340.68L1603.87 95.77" stroke="rgba(217, 109, 31, 1)" stroke-width="1.5"></path><path d="M1593.21 340.68L1311.54 201.2" stroke="rgba(217, 109, 31, 1)" stroke-width="1.5"></path><path d="M1593.21 340.68L1271.56 354.56" stroke="rgba(217, 109, 31, 1)" stroke-width="1.5"></path><path d="M1568.7 678.06L1568.7 678.06" stroke="rgba(217, 109, 31, 1)" stroke-width="1.5"></path><path d="M1568.7 678.06L1287.94 695.78" stroke="rgba(217, 109, 31, 1)" stroke-width="1.5"></path><path d="M1568.7 678.06L1593.21 340.68" stroke="rgba(217, 109, 31, 1)" stroke-width="1.5"></path><path d="M1568.7 678.06L1271.56 354.56" stroke="rgba(217, 109, 31, 1)" stroke-width="1.5"></path><path d="M1568.7 678.06L1542.33 230.76" stroke="rgba(217, 109, 31, 1)" stroke-width="1.5"></path><circle r="5" cx="-64.61" cy="501.29" fill="rgba(217, 109, 31, 1)"></circle><circle r="5" cx="-74.35" cy="648.84" fill="rgba(217, 109, 31, 1)"></circle><circle r="5" cx="76.87" cy="394.21" fill="rgba(217, 109, 31, 1)"></circle><circle r="5" cx="100.58" cy="490.23" fill="rgba(217, 109, 31, 1)"></circle><circle r="5" cx="85.39" cy="691.98" fill="rgba(217, 109, 31, 1)"></circle><circle r="5" cx="217.82" cy="410.69" fill="rgba(217, 109, 31, 1)"></circle><circle r="5" cx="202.22" cy="513.74" fill="rgba(217, 109, 31, 1)"></circle><circle r="5" cx="259.62" cy="685.26" fill="rgba(217, 109, 31, 1)"></circle><circle r="5" cx="358.86" cy="389.29" fill="rgba(217, 109, 31, 1)"></circle><circle r="5" cx="381.94" cy="506.19" fill="rgba(217, 109, 31, 1)"></circle><circle r="5" cx="407.8" cy="705.42" fill="rgba(217, 109, 31, 1)"></circle><circle r="5" cx="556.13" cy="412.44" fill="rgba(217, 109, 31, 1)"></circle><circle r="5" cx="538.9" cy="512.41" fill="rgba(217, 109, 31, 1)"></circle><circle r="5" cx="534.72" cy="659.99" fill="rgba(217, 109, 31, 1)"></circle><circle r="5" cx="704.83" cy="213.22" fill="rgba(217, 109, 31, 1)"></circle><circle r="5" cx="658.87" cy="398.23" fill="rgba(217, 109, 31, 1)"></circle><circle r="5" cx="665.58" cy="522.35" fill="rgba(217, 109, 31, 1)"></circle><circle r="5" cx="668.55" cy="666.5" fill="rgba(217, 109, 31, 1)"></circle><circle r="5" cx="806.5" cy="210.53" fill="rgba(217, 109, 31, 1)"></circle><circle r="5" cx="827.9" cy="367.01" fill="rgba(217, 109, 31, 1)"></circle><circle r="5" cx="830.27" cy="489.78" fill="rgba(217, 109, 31, 1)"></circle><circle r="5" cx="947.47" cy="-102.18" fill="rgba(217, 109, 31, 1)"></circle><circle r="5" cx="997.95" cy="105.45" fill="rgba(217, 109, 31, 1)"></circle><circle r="5" cx="956.43" cy="207.97" fill="rgba(217, 109, 31, 1)"></circle><circle r="5" cx="941" cy="341.79" fill="rgba(217, 109, 31, 1)"></circle><circle r="5" cx="1003.81" cy="534.71" fill="rgba(217, 109, 31, 1)"></circle><circle r="5" cx="974.44" cy="666.16" fill="rgba(217, 109, 31, 1)"></circle><circle r="5" cx="1094.07" cy="-68.26" fill="rgba(217, 109, 31, 1)"></circle><circle r="5" cx="1096.46" cy="215.12" fill="rgba(217, 109, 31, 1)"></circle><circle r="5" cx="1117.99" cy="344.03" fill="rgba(217, 109, 31, 1)"></circle><circle r="5" cx="1103.82" cy="513.32" fill="rgba(217, 109, 31, 1)"></circle><circle r="5" cx="1092.26" cy="647.88" fill="rgba(217, 109, 31, 1)"></circle><circle r="5" cx="1304.84" cy="-46.56" fill="rgba(217, 109, 31, 1)"></circle><circle r="5" cx="1305.63" cy="74.58" fill="rgba(217, 109, 31, 1)"></circle><circle r="5" cx="1311.54" cy="201.2" fill="rgba(217, 109, 31, 1)"></circle><circle r="5" cx="1271.56" cy="354.56" fill="rgba(217, 109, 31, 1)"></circle><circle r="5" cx="1287.94" cy="695.78" fill="rgba(217, 109, 31, 1)"></circle><circle r="5" cx="1422.73" cy="-82.01" fill="rgba(217, 109, 31, 1)"></circle><circle r="5" cx="1389.17" cy="86.56" fill="rgba(217, 109, 31, 1)"></circle><circle r="5" cx="1447.31" cy="201.96" fill="rgba(217, 109, 31, 1)"></circle><circle r="5" cx="1460.51" cy="551.44" fill="rgba(217, 109, 31, 1)"></circle><circle r="5" cx="1449.25" cy="679.29" fill="rgba(217, 109, 31, 1)"></circle><circle r="5" cx="1562.2" cy="-112" fill="rgba(217, 109, 31, 1)"></circle><circle r="5" cx="1603.87" cy="95.77" fill="rgba(217, 109, 31, 1)"></circle><circle r="5" cx="1542.33" cy="230.76" fill="rgba(217, 109, 31, 1)"></circle><circle r="5" cx="1593.21" cy="340.68" fill="rgba(217, 109, 31, 1)"></circle><circle r="5" cx="1568.7" cy="678.06" fill="rgba(217, 109, 31, 1)"></circle><path d="M994.46 344.73L994.46 344.73" stroke="hsl(25.19999999999999, 75%, 63.2%)" stroke-width="1.5"></path><path d="M994.46 344.73L1103.48 403.96" stroke="hsl(25.19999999999999, 75%, 63.2%)" stroke-width="1.5"></path><path d="M994.46 344.73L990.96 511.33" stroke="hsl(25.19999999999999, 75%, 63.2%)" stroke-width="1.5"></path><path d="M994.46 344.73L824.35 342.4" stroke="hsl(25.19999999999999, 75%, 63.2%)" stroke-width="1.5"></path><path d="M1127.23 207.08L1127.23 207.08" stroke="hsl(25.19999999999999, 75%, 63.2%)" stroke-width="1.5"></path><path d="M1127.23 207.08L1256.38 250.17" stroke="hsl(25.19999999999999, 75%, 63.2%)" stroke-width="1.5"></path><path d="M1127.23 207.08L994.46 344.73" stroke="hsl(25.19999999999999, 75%, 63.2%)" stroke-width="1.5"></path><path d="M1127.23 207.08L1103.48 403.96" stroke="hsl(25.19999999999999, 75%, 63.2%)" stroke-width="1.5"></path><path d="M1127.23 207.08L1284.43 78.05" stroke="hsl(25.19999999999999, 75%, 63.2%)" stroke-width="1.5"></path><path d="M1127.23 207.08L1293.6 354.05" stroke="hsl(25.19999999999999, 75%, 63.2%)" stroke-width="1.5"></path><path d="M1127.23 207.08L1398.69 189.47" stroke="hsl(25.19999999999999, 75%, 63.2%)" stroke-width="1.5"></path><path d="M1138.63 691.97L1138.63 691.97" stroke="hsl(25.19999999999999, 75%, 63.2%)" stroke-width="1.5"></path><path d="M1138.63 691.97L1158.76 554.84" stroke="hsl(25.19999999999999, 75%, 63.2%)" stroke-width="1.5"></path><path d="M1138.63 691.97L976.66 689.71" stroke="hsl(25.19999999999999, 75%, 63.2%)" stroke-width="1.5"></path><path d="M1138.63 691.97L1305.03 695.57" stroke="hsl(25.19999999999999, 75%, 63.2%)" stroke-width="1.5"></path><path d="M1138.63 691.97L1274.61 539.31" stroke="hsl(25.19999999999999, 75%, 63.2%)" stroke-width="1.5"></path><path d="M1284.43 78.05L1284.43 78.05" stroke="hsl(25.19999999999999, 75%, 63.2%)" stroke-width="1.5"></path><path d="M1284.43 78.05L1398.69 189.47" stroke="hsl(25.19999999999999, 75%, 63.2%)" stroke-width="1.5"></path><path d="M1284.43 78.05L1256.38 250.17" stroke="hsl(25.19999999999999, 75%, 63.2%)" stroke-width="1.5"></path><path d="M1293.6 354.05L1293.6 354.05" stroke="hsl(25.19999999999999, 75%, 63.2%)" stroke-width="1.5"></path><path d="M1293.6 354.05L1256.38 250.17" stroke="hsl(25.19999999999999, 75%, 63.2%)" stroke-width="1.5"></path><path d="M1293.6 354.05L1406.4 398.09" stroke="hsl(25.19999999999999, 75%, 63.2%)" stroke-width="1.5"></path><path d="M1293.6 354.05L1274.61 539.31" stroke="hsl(25.19999999999999, 75%, 63.2%)" stroke-width="1.5"></path><path d="M1293.6 354.05L1398.69 189.47" stroke="hsl(25.19999999999999, 75%, 63.2%)" stroke-width="1.5"></path><path d="M1274.61 539.31L1274.61 539.31" stroke="hsl(25.19999999999999, 75%, 63.2%)" stroke-width="1.5"></path><path d="M1274.61 539.31L1158.76 554.84" stroke="hsl(25.19999999999999, 75%, 63.2%)" stroke-width="1.5"></path><path d="M1274.61 539.31L1305.03 695.57" stroke="hsl(25.19999999999999, 75%, 63.2%)" stroke-width="1.5"></path><path d="M1274.61 539.31L1454.51 529.57" stroke="hsl(25.19999999999999, 75%, 63.2%)" stroke-width="1.5"></path><path d="M1274.61 539.31L1406.4 398.09" stroke="hsl(25.19999999999999, 75%, 63.2%)" stroke-width="1.5"></path><path d="M1454.51 529.57L1454.51 529.57" stroke="hsl(25.19999999999999, 75%, 63.2%)" stroke-width="1.5"></path><path d="M1454.51 529.57L1580.15 525.35" stroke="hsl(25.19999999999999, 75%, 63.2%)" stroke-width="1.5"></path><path d="M1454.51 529.57L1406.4 398.09" stroke="hsl(25.19999999999999, 75%, 63.2%)" stroke-width="1.5"></path><path d="M1454.51 529.57L1545.33 676.18" stroke="hsl(25.19999999999999, 75%, 63.2%)" stroke-width="1.5"></path><path d="M1454.51 529.57L1412.38 700.59" stroke="hsl(25.19999999999999, 75%, 63.2%)" stroke-width="1.5"></path><path d="M-107.77 495.45L-107.77 495.45" stroke="hsl(25.19999999999999, 75%, 63.2%)" stroke-width="1.5"></path><path d="M-107.77 495.45L64.45 502.18" stroke="hsl(25.19999999999999, 75%, 63.2%)" stroke-width="1.5"></path><path d="M-107.77 495.45L-54.32 661.48" stroke="hsl(25.19999999999999, 75%, 63.2%)" stroke-width="1.5"></path><path d="M-107.77 495.45L109.24 649.28" stroke="hsl(25.19999999999999, 75%, 63.2%)" stroke-width="1.5"></path><path d="M-54.32 661.48L-54.32 661.48" stroke="hsl(25.19999999999999, 75%, 63.2%)" stroke-width="1.5"></path><path d="M-54.32 661.48L109.24 649.28" stroke="hsl(25.19999999999999, 75%, 63.2%)" stroke-width="1.5"></path><path d="M-54.32 661.48L64.45 502.18" stroke="hsl(25.19999999999999, 75%, 63.2%)" stroke-width="1.5"></path><path d="M64.45 502.18L64.45 502.18" stroke="hsl(25.19999999999999, 75%, 63.2%)" stroke-width="1.5"></path><path d="M64.45 502.18L201.92 508.8" stroke="hsl(25.19999999999999, 75%, 63.2%)" stroke-width="1.5"></path><path d="M64.45 502.18L109.24 649.28" stroke="hsl(25.19999999999999, 75%, 63.2%)" stroke-width="1.5"></path><path d="M64.45 502.18L373.73 533.08" stroke="hsl(25.19999999999999, 75%, 63.2%)" stroke-width="1.5"></path><path d="M109.24 649.28L109.24 649.28" stroke="hsl(25.19999999999999, 75%, 63.2%)" stroke-width="1.5"></path><path d="M109.24 649.28L201.92 508.8" stroke="hsl(25.19999999999999, 75%, 63.2%)" stroke-width="1.5"></path><path d="M201.92 508.8L201.92 508.8" stroke="hsl(25.19999999999999, 75%, 63.2%)" stroke-width="1.5"></path><path d="M201.92 508.8L373.73 533.08" stroke="hsl(25.19999999999999, 75%, 63.2%)" stroke-width="1.5"></path><path d="M201.92 508.8L405.89 706.48" stroke="hsl(25.19999999999999, 75%, 63.2%)" stroke-width="1.5"></path><path d="M201.92 508.8L-54.32 661.48" stroke="hsl(25.19999999999999, 75%, 63.2%)" stroke-width="1.5"></path><path d="M201.92 508.8L-107.77 495.45" stroke="hsl(25.19999999999999, 75%, 63.2%)" stroke-width="1.5"></path><path d="M373.73 533.08L373.73 533.08" stroke="hsl(25.19999999999999, 75%, 63.2%)" stroke-width="1.5"></path><path d="M373.73 533.08L529.39 523.24" stroke="hsl(25.19999999999999, 75%, 63.2%)" stroke-width="1.5"></path><path d="M373.73 533.08L405.89 706.48" stroke="hsl(25.19999999999999, 75%, 63.2%)" stroke-width="1.5"></path><path d="M373.73 533.08L523.57 671.8" stroke="hsl(25.19999999999999, 75%, 63.2%)" stroke-width="1.5"></path><path d="M373.73 533.08L557.15 404.4" stroke="hsl(25.19999999999999, 75%, 63.2%)" stroke-width="1.5"></path><path d="M373.73 533.08L661.17 517.5" stroke="hsl(25.19999999999999, 75%, 63.2%)" stroke-width="1.5"></path><path d="M405.89 706.48L405.89 706.48" stroke="hsl(25.19999999999999, 75%, 63.2%)" stroke-width="1.5"></path><path d="M405.89 706.48L523.57 671.8" stroke="hsl(25.19999999999999, 75%, 63.2%)" stroke-width="1.5"></path><path d="M405.89 706.48L529.39 523.24" stroke="hsl(25.19999999999999, 75%, 63.2%)" stroke-width="1.5"></path><path d="M405.89 706.48L679.27 678.34" stroke="hsl(25.19999999999999, 75%, 63.2%)" stroke-width="1.5"></path><path d="M557.15 404.4L557.15 404.4" stroke="hsl(25.19999999999999, 75%, 63.2%)" stroke-width="1.5"></path><path d="M557.15 404.4L529.39 523.24" stroke="hsl(25.19999999999999, 75%, 63.2%)" stroke-width="1.5"></path><path d="M557.15 404.4L661.17 517.5" stroke="hsl(25.19999999999999, 75%, 63.2%)" stroke-width="1.5"></path><path d="M529.39 523.24L529.39 523.24" stroke="hsl(25.19999999999999, 75%, 63.2%)" stroke-width="1.5"></path><path d="M529.39 523.24L661.17 517.5" stroke="hsl(25.19999999999999, 75%, 63.2%)" stroke-width="1.5"></path><path d="M529.39 523.24L523.57 671.8" stroke="hsl(25.19999999999999, 75%, 63.2%)" stroke-width="1.5"></path><path d="M529.39 523.24L679.27 678.34" stroke="hsl(25.19999999999999, 75%, 63.2%)" stroke-width="1.5"></path><path d="M523.57 671.8L523.57 671.8" stroke="hsl(25.19999999999999, 75%, 63.2%)" stroke-width="1.5"></path><path d="M523.57 671.8L679.27 678.34" stroke="hsl(25.19999999999999, 75%, 63.2%)" stroke-width="1.5"></path><path d="M523.57 671.8L661.17 517.5" stroke="hsl(25.19999999999999, 75%, 63.2%)" stroke-width="1.5"></path><path d="M523.57 671.8L557.15 404.4" stroke="hsl(25.19999999999999, 75%, 63.2%)" stroke-width="1.5"></path><path d="M661.17 517.5L661.17 517.5" stroke="hsl(25.19999999999999, 75%, 63.2%)" stroke-width="1.5"></path><path d="M661.17 517.5L679.27 678.34" stroke="hsl(25.19999999999999, 75%, 63.2%)" stroke-width="1.5"></path><path d="M661.17 517.5L850.36 547.66" stroke="hsl(25.19999999999999, 75%, 63.2%)" stroke-width="1.5"></path><path d="M679.27 678.34L679.27 678.34" stroke="hsl(25.19999999999999, 75%, 63.2%)" stroke-width="1.5"></path><path d="M679.27 678.34L835.58 691.34" stroke="hsl(25.19999999999999, 75%, 63.2%)" stroke-width="1.5"></path><path d="M679.27 678.34L850.36 547.66" stroke="hsl(25.19999999999999, 75%, 63.2%)" stroke-width="1.5"></path><path d="M824.35 342.4L824.35 342.4" stroke="hsl(25.19999999999999, 75%, 63.2%)" stroke-width="1.5"></path><path d="M824.35 342.4L850.36 547.66" stroke="hsl(25.19999999999999, 75%, 63.2%)" stroke-width="1.5"></path><path d="M824.35 342.4L990.96 511.33" stroke="hsl(25.19999999999999, 75%, 63.2%)" stroke-width="1.5"></path><path d="M824.35 342.4L661.17 517.5" stroke="hsl(25.19999999999999, 75%, 63.2%)" stroke-width="1.5"></path><path d="M850.36 547.66L850.36 547.66" stroke="hsl(25.19999999999999, 75%, 63.2%)" stroke-width="1.5"></path><path d="M850.36 547.66L835.58 691.34" stroke="hsl(25.19999999999999, 75%, 63.2%)" stroke-width="1.5"></path><path d="M850.36 547.66L990.96 511.33" stroke="hsl(25.19999999999999, 75%, 63.2%)" stroke-width="1.5"></path><path d="M850.36 547.66L976.66 689.71" stroke="hsl(25.19999999999999, 75%, 63.2%)" stroke-width="1.5"></path><path d="M835.58 691.34L835.58 691.34" stroke="hsl(25.19999999999999, 75%, 63.2%)" stroke-width="1.5"></path><path d="M835.58 691.34L976.66 689.71" stroke="hsl(25.19999999999999, 75%, 63.2%)" stroke-width="1.5"></path><path d="M835.58 691.34L990.96 511.33" stroke="hsl(25.19999999999999, 75%, 63.2%)" stroke-width="1.5"></path><path d="M835.58 691.34L661.17 517.5" stroke="hsl(25.19999999999999, 75%, 63.2%)" stroke-width="1.5"></path><path d="M990.96 511.33L990.96 511.33" stroke="hsl(25.19999999999999, 75%, 63.2%)" stroke-width="1.5"></path><path d="M990.96 511.33L1103.48 403.96" stroke="hsl(25.19999999999999, 75%, 63.2%)" stroke-width="1.5"></path><path d="M990.96 511.33L1158.76 554.84" stroke="hsl(25.19999999999999, 75%, 63.2%)" stroke-width="1.5"></path><path d="M990.96 511.33L976.66 689.71" stroke="hsl(25.19999999999999, 75%, 63.2%)" stroke-width="1.5"></path><path d="M990.96 511.33L1138.63 691.97" stroke="hsl(25.19999999999999, 75%, 63.2%)" stroke-width="1.5"></path><path d="M976.66 689.71L976.66 689.71" stroke="hsl(25.19999999999999, 75%, 63.2%)" stroke-width="1.5"></path><path d="M1103.48 403.96L1103.48 403.96" stroke="hsl(25.19999999999999, 75%, 63.2%)" stroke-width="1.5"></path><path d="M1103.48 403.96L1158.76 554.84" stroke="hsl(25.19999999999999, 75%, 63.2%)" stroke-width="1.5"></path><path d="M1103.48 403.96L1293.6 354.05" stroke="hsl(25.19999999999999, 75%, 63.2%)" stroke-width="1.5"></path><path d="M1103.48 403.96L1256.38 250.17" stroke="hsl(25.19999999999999, 75%, 63.2%)" stroke-width="1.5"></path><path d="M1158.76 554.84L1158.76 554.84" stroke="hsl(25.19999999999999, 75%, 63.2%)" stroke-width="1.5"></path><path d="M1308.81 -107.51L1308.81 -107.51" stroke="hsl(25.19999999999999, 75%, 63.2%)" stroke-width="1.5"></path><path d="M1308.81 -107.51L1416.78 -106.75" stroke="hsl(25.19999999999999, 75%, 63.2%)" stroke-width="1.5"></path><path d="M1308.81 -107.51L1284.43 78.05" stroke="hsl(25.19999999999999, 75%, 63.2%)" stroke-width="1.5"></path><path d="M1308.81 -107.51L1577.5 43.44" stroke="hsl(25.19999999999999, 75%, 63.2%)" stroke-width="1.5"></path><path d="M1308.81 -107.51L1398.69 189.47" stroke="hsl(25.19999999999999, 75%, 63.2%)" stroke-width="1.5"></path><path d="M1308.81 -107.51L1256.38 250.17" stroke="hsl(25.19999999999999, 75%, 63.2%)" stroke-width="1.5"></path><path d="M1308.81 -107.51L1127.23 207.08" stroke="hsl(25.19999999999999, 75%, 63.2%)" stroke-width="1.5"></path><path d="M1256.38 250.17L1256.38 250.17" stroke="hsl(25.19999999999999, 75%, 63.2%)" stroke-width="1.5"></path><path d="M1256.38 250.17L1398.69 189.47" stroke="hsl(25.19999999999999, 75%, 63.2%)" stroke-width="1.5"></path><path d="M1305.03 695.57L1305.03 695.57" stroke="hsl(25.19999999999999, 75%, 63.2%)" stroke-width="1.5"></path><path d="M1305.03 695.57L1412.38 700.59" stroke="hsl(25.19999999999999, 75%, 63.2%)" stroke-width="1.5"></path><path d="M1416.78 -106.75L1416.78 -106.75" stroke="hsl(25.19999999999999, 75%, 63.2%)" stroke-width="1.5"></path><path d="M1416.78 -106.75L1577.5 43.44" stroke="hsl(25.19999999999999, 75%, 63.2%)" stroke-width="1.5"></path><path d="M1416.78 -106.75L1284.43 78.05" stroke="hsl(25.19999999999999, 75%, 63.2%)" stroke-width="1.5"></path><path d="M1416.78 -106.75L1398.69 189.47" stroke="hsl(25.19999999999999, 75%, 63.2%)" stroke-width="1.5"></path><path d="M1416.78 -106.75L1569.39 224.44" stroke="hsl(25.19999999999999, 75%, 63.2%)" stroke-width="1.5"></path><path d="M1398.69 189.47L1398.69 189.47" stroke="hsl(25.19999999999999, 75%, 63.2%)" stroke-width="1.5"></path><path d="M1406.4 398.09L1406.4 398.09" stroke="hsl(25.19999999999999, 75%, 63.2%)" stroke-width="1.5"></path><path d="M1406.4 398.09L1612.04 369.61" stroke="hsl(25.19999999999999, 75%, 63.2%)" stroke-width="1.5"></path><path d="M1406.4 398.09L1398.69 189.47" stroke="hsl(25.19999999999999, 75%, 63.2%)" stroke-width="1.5"></path><path d="M1406.4 398.09L1256.38 250.17" stroke="hsl(25.19999999999999, 75%, 63.2%)" stroke-width="1.5"></path><path d="M1412.38 700.59L1412.38 700.59" stroke="hsl(25.19999999999999, 75%, 63.2%)" stroke-width="1.5"></path><path d="M1577.5 43.44L1577.5 43.44" stroke="hsl(25.19999999999999, 75%, 63.2%)" stroke-width="1.5"></path><path d="M1577.5 43.44L1569.39 224.44" stroke="hsl(25.19999999999999, 75%, 63.2%)" stroke-width="1.5"></path><path d="M1577.5 43.44L1398.69 189.47" stroke="hsl(25.19999999999999, 75%, 63.2%)" stroke-width="1.5"></path><path d="M1577.5 43.44L1284.43 78.05" stroke="hsl(25.19999999999999, 75%, 63.2%)" stroke-width="1.5"></path><path d="M1569.39 224.44L1569.39 224.44" stroke="hsl(25.19999999999999, 75%, 63.2%)" stroke-width="1.5"></path><path d="M1569.39 224.44L1612.04 369.61" stroke="hsl(25.19999999999999, 75%, 63.2%)" stroke-width="1.5"></path><path d="M1569.39 224.44L1398.69 189.47" stroke="hsl(25.19999999999999, 75%, 63.2%)" stroke-width="1.5"></path><path d="M1569.39 224.44L1406.4 398.09" stroke="hsl(25.19999999999999, 75%, 63.2%)" stroke-width="1.5"></path><path d="M1569.39 224.44L1580.15 525.35" stroke="hsl(25.19999999999999, 75%, 63.2%)" stroke-width="1.5"></path><path d="M1612.04 369.61L1612.04 369.61" stroke="hsl(25.19999999999999, 75%, 63.2%)" stroke-width="1.5"></path><path d="M1612.04 369.61L1580.15 525.35" stroke="hsl(25.19999999999999, 75%, 63.2%)" stroke-width="1.5"></path><path d="M1580.15 525.35L1580.15 525.35" stroke="hsl(25.19999999999999, 75%, 63.2%)" stroke-width="1.5"></path><path d="M1580.15 525.35L1545.33 676.18" stroke="hsl(25.19999999999999, 75%, 63.2%)" stroke-width="1.5"></path><path d="M1545.33 676.18L1545.33 676.18" stroke="hsl(25.19999999999999, 75%, 63.2%)" stroke-width="1.5"></path><path d="M1545.33 676.18L1412.38 700.59" stroke="hsl(25.19999999999999, 75%, 63.2%)" stroke-width="1.5"></path><circle r="25" cx="994.46" cy="344.73" fill="url(#SvgjsRadialGradient1007)"></circle><circle r="25" cx="1127.23" cy="207.08" fill="url(#SvgjsRadialGradient1007)"></circle><circle r="25" cx="1138.63" cy="691.97" fill="url(#SvgjsRadialGradient1007)"></circle><circle r="25" cx="1284.43" cy="78.05" fill="url(#SvgjsRadialGradient1007)"></circle><circle r="25" cx="1293.6" cy="354.05" fill="url(#SvgjsRadialGradient1007)"></circle><circle r="25" cx="1274.61" cy="539.31" fill="url(#SvgjsRadialGradient1007)"></circle><circle r="25" cx="1454.51" cy="529.57" fill="url(#SvgjsRadialGradient1007)"></circle><circle r="5" cx="-107.77" cy="495.45" fill="#ecb68f"></circle><circle r="5" cx="-54.32" cy="661.48" fill="#ecb68f"></circle><circle r="5" cx="64.45" cy="502.18" fill="#ecb68f"></circle><circle r="5" cx="109.24" cy="649.28" fill="#ecb68f"></circle><circle r="5" cx="201.92" cy="508.8" fill="#ecb68f"></circle><circle r="5" cx="373.73" cy="533.08" fill="#ecb68f"></circle><circle r="5" cx="405.89" cy="706.48" fill="#ecb68f"></circle><circle r="5" cx="557.15" cy="404.4" fill="#ecb68f"></circle><circle r="5" cx="529.39" cy="523.24" fill="#ecb68f"></circle><circle r="5" cx="523.57" cy="671.8" fill="#ecb68f"></circle><circle r="5" cx="661.17" cy="517.5" fill="#ecb68f"></circle><circle r="5" cx="679.27" cy="678.34" fill="#ecb68f"></circle><circle r="5" cx="824.35" cy="342.4" fill="#ecb68f"></circle><circle r="5" cx="850.36" cy="547.66" fill="#ecb68f"></circle><circle r="5" cx="835.58" cy="691.34" fill="#ecb68f"></circle><circle r="5" cx="990.96" cy="511.33" fill="#ecb68f"></circle><circle r="5" cx="976.66" cy="689.71" fill="#ecb68f"></circle><circle r="5" cx="1103.48" cy="403.96" fill="#ecb68f"></circle><circle r="5" cx="1158.76" cy="554.84" fill="#ecb68f"></circle><circle r="5" cx="1308.81" cy="-107.51" fill="#ecb68f"></circle><circle r="5" cx="1256.38" cy="250.17" fill="#ecb68f"></circle><circle r="5" cx="1305.03" cy="695.57" fill="#ecb68f"></circle><circle r="5" cx="1416.78" cy="-106.75" fill="#ecb68f"></circle><circle r="5" cx="1398.69" cy="189.47" fill="#ecb68f"></circle><circle r="5" cx="1406.4" cy="398.09" fill="#ecb68f"></circle><circle r="5" cx="1412.38" cy="700.59" fill="#ecb68f"></circle><circle r="5" cx="1577.5" cy="43.44" fill="#ecb68f"></circle><circle r="5" cx="1569.39" cy="224.44" fill="#ecb68f"></circle><circle r="5" cx="1612.04" cy="369.61" fill="#ecb68f"></circle><circle r="5" cx="1580.15" cy="525.35" fill="#ecb68f"></circle><circle r="5" cx="1545.33" cy="676.18" fill="#ecb68f"></circle></g><defs><mask id="SvgjsMask1006"><rect width="1440" height="560" fill="#ffffff"></rect></mask><radialGradient id="SvgjsRadialGradient1007"><stop stop-color="#ffffff" offset="0.1"></stop><stop stop-color="rgba(217, 109, 31, 1)" offset="0.2"></stop><stop stop-color="rgba(217, 109, 31, 0)" offset="1"></stop></radialGradient></defs></svg>